#!OML:ASF E:\Mandelcareful walks\Project 1\Capture day 1\Session 1\Subject1.ASF
:FULLY-SPECIFIED
:DEGREES
141
root -22.7627 16.729 -0.423403 -122.3 96.2008 -131.964
lowerback 13.4469 -0.630459 -1.6998
upperback 6.82208 -0.703744 0.00633713
thorax -0.347081 -0.25535 1.05723
lowerneck -23.7203 1.85917 -1.19643
upperneck 31.5294 5.02393 -3.32713
head 15.0566 1.64585 -0.149996
rclavicle -1.07344e-014 1.31198e-014
rhumerus -19.4447 6.54208 -83.6938
rradius 35.6441
rwrist -14.7184
rhand -9.26714 -30.4744
rfingers 7.12502
rthumb 16.6893 -59.777
lclavicle -1.07344e-014 1.31198e-014
lhumerus -18.8794 -3.08077 87.3412
lradius 29.3811
lwrist 9.31776
lhand -19.165 -12.1336
lfingers 7.12502
lthumb 7.14591 17.7257
rfemur -22.881 -4.6175 14.3228
rtibia 30.1169
rfoot -18.4043 -9.80299
rtoes 5.3356
lfemur -15.8735 5.42031 -17.836
ltibia 28.1012
lfoot -24.5158 14.6888
ltoes 17.4776
142
root -22.7625 16.6987 -0.362479 -121.42 96.3426 -131.018
lowerback 13.7443 -0.588363 -1.51389
upperback 7.11994 -0.605883 -0.0826089
thorax -0.199251 -0.193149 0.848235
lowerneck -23.9547 1.7921 -1.21299
upperneck 31.5255 4.96242 -3.40311
head 15.1091 1.6011 -0.188699
rclavicle 2.78299e-015 1.98785e-015
rhumerus -19.1507 6.41225 -83.6326
rradius 36.1931
rwrist -15.0193
rhand -8.98921 -31.5852
rfingers 7.12502
rthumb 16.9568 -60.8651
lclavicle 2.78299e-015 1.98785e-015
lhumerus -18.6202 -2.96947 86.9687
lradius 29.8919
lwrist 9.59233
lhand -19.6241 -12.0544
lfingers 7.12502
lthumb 6.7027 17.8195
rfemur -23.178 -4.51321 14.3482
rtibia 30.8914
rfoot -18.9705 -9.75051
rtoes 4.9378
lfemur -16.6678 6.24818 -17.7356
ltibia 29.6366
lfoot -23.9599 13.975
ltoes 16.403
143
root -22.7592 16.6664 -0.293369 -121.472 96.4407 -131.001
lowerback 14.3725 -0.562371 -1.66506
upperback 7.02654 -0.595452 0.100865
thorax -0.627041 -0.189519 1.12865
lowerneck -23.3974 1.82705 -1.45386
upperneck 31.4542 5.13844 -3.48464
head 14.9539 1.65096 -0.151609
rclavicle 0 9.14409e-015
rhumerus -19.5592 7.10506 -83.4399
rradius 36.8949
rwrist -15.4545
rhand -9.1348 -31.2633
rfingers 7.12502
rthumb 16.8167 -60.5551
lclavicle 0 9.14409e-015
lhumerus -19.1977 -2.16881 86.8067
lradius 30.5949
lwrist 9.72561
lhand -20.1709 -12.0463
lfingers 7.12502
lthumb 6.17487 17.8437
rfemur -23.493 -4.34155 14.5129
rtibia 31.6645
rfoot -19.4758 -9.63617
rtoes 5.34016
lfemur -17.665 7.40083 -17.5033
ltibia 31.5965
lfoot -23.0641 13.0929
ltoes 14.8744
144
root -22.7558 16.631 -0.220381 -122.664 96.5177 -132.11
lowerback 14.8049 -0.50726 -1.42147
upperback 7.1681 -0.484528 -0.00587959
thorax -0.714856 -0.120343 0.866363
lowerneck -23.1926 1.83054 -1.33735
upperneck 31.3549 5.06472 -3.44246
head 14.8623 1.64607 -0.170763
rclavicle 1.55052e-014 5.56597e-015
rhumerus -19.5041 7.3141 -83.6026
rradius 37.4216
rwrist -15.822
rhand -9.49228 -30.692
rfingers 7.12502
rthumb 16.4725 -60.0127
lclavicle 1.55052e-014 5.56597e-015
lhumerus -19.0039 -1.63932 86.2135
lradius 30.6753
lwrist 10.0028
lhand -20.4899 -12.6169
lfingers 7.12502
lthumb 5.86685 17.2819
rfemur -23.8589 -4.13269 14.7882
rtibia 32.4853
rfoot -19.9976 -9.38164
rtoes 6.37807
lfemur -18.8166 8.64977 -17.12
ltibia 33.9967
lfoot -22.0183 12.119
ltoes 12.3956
145
root -22.7568 16.5955 -0.151809 -124.068 96.4624 -133.396
lowerback 15.45 -0.435266 -1.08655
upperback 7.28679 -0.335764 -0.00675191
thorax -0.937512 -0.0302859 0.656713
lowerneck -23.1912 1.76517 -1.27369
upperneck 31.391 4.95268 -3.45523
head 14.8786 1.60464 -0.208455
rclavicle -9.93923e-015 -3.18055e-015
rhumerus -19.4141 7.5439 -83.5862
rradius 37.912
rwrist -16.2833
rhand -9.59737 -30.4488
rfingers 7.12502
rthumb 16.3713 -59.7779
lclavicle -9.93923e-015 -3.18055e-015
lhumerus -19.4502 -1.69701 85.8006
lradius 32.0373
lwrist 11.0719
lhand -20.6665 -12.8351
lfingers 7.12502
lthumb 5.69631 17.0683
rfemur -24.2623 -4.16595 15.1963
rtibia 33.4667
rfoot -20.5704 -8.97986
rtoes 6.85791
lfemur -20.3023 9.90338 -16.6618
ltibia 36.8468
lfoot -21.4172 11.4878
ltoes 9.4257
146
root -22.7626 16.5512 -0.0849574 -126.173 96.4307 -135.197
lowerback 15.9382 -0.352304 -0.819526
upperback 7.7475 -0.150213 0.063243
thorax -0.711615 0.0813315 0.550789
lowerneck -23.4593 1.70274 -1.37979
upperneck 31.2571 4.87547 -3.42129
head 14.8717 1.55796 -0.189452
rclavicle 1.31198e-014 -5.1684e-015
rhumerus -18.8285 7.81856 -83.4039
rradius 38.3535
rwrist -16.656
rhand -9.55042 -30.2494
rfingers 7.12502
rthumb 16.4165 -59.5747
lclavicle 1.31198e-014 -5.1684e-015
lhumerus -18.8081 -0.942571 85.4127
lradius 32.2272
lwrist 11.3861
lhand -20.9765 -13.6403
lfingers 7.12502
lthumb 5.39707 16.2709
rfemur -24.4657 -4.29209 15.6418
rtibia 34.4572
rfoot -21.1289 -8.5082
rtoes 7.23349
lfemur -21.8993 11.2934 -16.1947
ltibia 40.0896
lfoot -20.2504 11.0607
ltoes 7.42849
